<?xml version="1.0" standalone="no"?>
<!DOCTYPE svg PUBLIC "-//W3C//DTD SVG 20010904//EN" "http://www.w3.org/TR/2001/REC-SVG-20010904/DTD/svg10.dtd">
<svg version="1.0" xmlns="http://www.w3.org/2000/svg" width="100.000000pt" height="100.000000pt"
  viewBox="0 0 100.000000 100.000000" preserveAspectRatio="xMidYMid meet">
  <g transform="translate(0.000000,100.000000) scale(0.100000,-0.100000)" fill="#ffffff" stroke="none">
    <path d="M430 884 c-67 -29 -101 -78 -101 -147 -2 -110 2 -166 10 -172 19 -11
61 -119 61 -155 0 -47 -21 -66 -111 -101 -82 -31 -149 -93 -149 -137 l0 -32
360 0 360 0 0 32 c0 44 -67 106 -149 137 -35 14 -74 33 -87 44 -35 27 -32 82
10 167 30 62 33 78 35 160 1 116 -13 150 -75 179 -24 12 -44 26 -44 31 0 15
-80 11 -120 -6z" />
    <path d="M214 786 c-17 -8 -42 -29 -55 -47 -21 -30 -24 -43 -21 -118 1 -52 7
-91 16 -100 20 -25 38 -77 34 -103 -2 -17 -20 -32 -72 -58 -83 -43 -116 -79
-116 -126 l0 -34 58 1 c55 0 58 1 87 42 23 31 50 51 100 75 123 57 120 55 123
91 2 18 -4 48 -12 66 -9 18 -16 36 -16 40 0 4 -9 18 -20 32 -15 20 -20 40 -19
88 1 35 -2 68 -5 74 -4 5 -2 28 3 50 l9 41 -32 0 c-17 -1 -45 -7 -62 -14z" />
    <path d="M697 693 c2 -79 -1 -115 -11 -133 -39 -69 -57 -117 -54 -150 3 -37
-1 -34 123 -92 50 -24 77 -44 100 -75 29 -41 32 -42 88 -42 l57 -1 0 39 c0 52
-34 93 -97 116 -103 38 -112 59 -68 148 36 70 40 192 9 234 -12 15 -31 29 -43
31 -12 2 -25 10 -28 18 -3 8 -19 14 -42 14 l-36 0 2 -107z" />
  </g>
</svg>