<?xml version="1.0" encoding="utf-8"?>

<!DOCTYPE svg PUBLIC "-//W3C//DTD SVG 1.1//EN" "http://www.w3.org/Graphics/SVG/1.1/DTD/svg11.dtd">
<!-- Uploaded to: SVG Repo, www.svgrepo.com, Generator: SVG Repo Mixer Tools -->
<svg version="1.1" id="_x32_" xmlns="http://www.w3.org/2000/svg" xmlns:xlink="http://www.w3.org/1999/xlink"
	viewBox="0 0 512 512" xml:space="preserve">
	<style type="text/css">
		.st0 {
			fill: #ffffff;
		}
	</style>
	<g>
		<path class="st0" d="M464,0H48C21.492,0,0,21.492,0,48v416c0,26.508,21.492,48,48,48h416c26.508,0,48-21.492,48-48V48
		C512,21.492,490.508,0,464,0z M444.664,35c10.492,0,19,8.508,19,19s-8.508,19-19,19c-10.492,0-19-8.508-19-19
		S434.172,35,444.664,35z M374.164,35c10.492,0,19,8.508,19,19s-8.508,19-19,19c-10.492,0-19-8.508-19-19S363.672,35,374.164,35z
		 M303.664,35c10.492,0,19,8.508,19,19s-8.508,19-19,19c-10.492,0-19-8.508-19-19S293.172,35,303.664,35z M472,464
		c0,4.406-3.586,8-8,8H48c-4.414,0-8-3.594-8-8V104h432V464z" />
		<rect x="96" y="192" class="st0" width="152" height="32" />
		<rect x="96" y="352" class="st0" width="328" height="32" />
		<rect x="304" y="192" class="st0" width="120" height="120" />
		<polygon class="st0" points="229.042,304 248,304 248,272 96,272 96,304 213.042,304 	" />
	</g>
</svg>